<?xml version="1.0" encoding="UTF-8"?>
<!-- Generator: visioncortex VTracer 0.6.3 -->
<svg version="1.1" xmlns="http://www.w3.org/2000/svg" width="1280" height="1221">
<path d="M0 0 C1 -0 2 -0.01 3.03 -0.01 C6.32 -0.02 9.6 -0.01 12.89 -0.01 C15.18 -0.01 17.48 -0.01 19.78 -0.01 C24.58 -0.02 29.39 -0.01 34.19 -0 C40.34 0.01 46.48 0 52.62 -0.01 C57.36 -0.02 62.1 -0.01 66.84 -0.01 C69.11 -0.01 71.37 -0.01 73.64 -0.01 C76.81 -0.02 79.98 -0.01 83.15 0 C84.07 -0 85 -0.01 85.95 -0.01 C91.03 0.02 95.62 0.52 100.54 1.8 C104.82 2.77 109.25 2.7 113.62 2.83 C117.52 2.99 120.16 3.46 123.57 5.26 C125.71 5.45 127.86 5.57 130.01 5.63 C137.36 6.06 143.66 7.86 150.57 10.26 C156.61 12.22 162.51 13.66 168.76 14.73 C174.11 15.74 179.76 16.84 184.65 19.31 C186.8 20.48 186.8 20.48 190.39 21.01 C195.33 22.04 199.83 23.87 204.49 25.8 C209.4 27.82 214.36 29.6 219.39 31.32 C224.78 33.18 229.86 35.22 234.91 37.9 C238.46 39.71 242.1 41.3 245.76 42.88 C246.43 43.17 247.09 43.46 247.78 43.76 C248.75 44.18 248.75 44.18 249.74 44.61 C250.39 44.89 251.04 45.17 251.71 45.46 C253.37 46.17 255.06 46.85 256.74 47.52 C262.02 49.78 266.98 52.7 271.98 55.51 C273.74 56.5 275.5 57.48 277.26 58.46 C288.45 64.7 299.5 71.03 310.14 78.2 C311.05 78.81 311.96 79.42 312.9 80.05 C319.24 84.31 325.47 88.67 331.57 93.26 C332.58 94 333.58 94.73 334.61 95.49 C340.51 99.85 346.14 104.34 351.57 109.26 C356.6 113.74 356.6 113.74 361.8 118.01 C370.14 124.55 377.55 131.93 385.01 139.43 C387.2 141.63 389.39 143.82 391.59 146 C398.36 152.77 404.89 159.53 410.82 167.05 C412.99 169.78 415.3 172.29 417.7 174.82 C421.46 178.91 424.72 183.09 427.82 187.69 C429.71 190.46 431.72 193.1 433.76 195.76 C439.18 202.94 444.12 210.42 449.05 217.94 C450.54 220.21 452.04 222.47 453.54 224.74 C458.25 231.88 462.7 239.04 466.64 246.65 C468.13 249.48 469.72 252.24 471.35 254.99 C478.06 266.36 483.64 277.79 488.63 290 C489.9 293.05 491.33 296.03 492.76 299.01 C495.37 304.56 497.41 310.22 499.39 316.02 C500.87 320.35 502.5 324.56 504.32 328.76 C506.12 332.94 507.33 336.92 508.18 341.38 C508.55 343.4 508.55 343.4 509.57 345.76 C510.75 348.7 511.36 351.6 512.02 354.7 C512.83 358.44 513.78 362.15 514.72 365.86 C515.35 368.37 515.97 370.89 516.59 373.41 C516.76 374.12 516.93 374.83 517.11 375.56 C517.45 376.95 517.79 378.35 518.13 379.74 C518.81 382.52 519.53 385.16 520.66 387.8 C521.83 390.95 521.93 393.78 522.07 397.13 C522.24 400.89 522.53 404.1 523.57 407.73 C524.65 411.53 524.95 414.94 525.14 418.88 C525.35 423.81 525.35 423.81 526.08 428.68 C526.57 431.23 526.7 433.52 526.7 436.12 C526.7 437.07 526.71 438.02 526.71 439 C526.71 440.03 526.71 441.06 526.7 442.12 C526.71 443.21 526.71 444.31 526.71 445.44 C526.71 449.06 526.71 452.67 526.71 456.29 C526.71 458.8 526.71 461.32 526.71 463.83 C526.71 469.1 526.71 474.37 526.7 479.64 C526.7 485.73 526.7 491.81 526.71 497.9 C526.71 503.76 526.71 509.62 526.71 515.48 C526.71 517.97 526.71 520.46 526.71 522.96 C526.71 526.44 526.71 529.92 526.7 533.4 C526.71 534.43 526.71 535.46 526.71 536.52 C526.71 537.47 526.7 538.42 526.7 539.4 C526.7 540.22 526.7 541.05 526.7 541.89 C526.57 544.43 526.09 546.77 525.57 549.26 C525.36 552.63 525.18 556 525.06 559.38 C524.85 563.46 524.11 566.51 522.57 570.26 C522.38 572.44 522.26 574.63 522.2 576.82 C521.85 582.86 520.63 587.82 518.55 593.47 C517.38 596.8 516.76 600.09 516.14 603.56 C515.19 608.11 513.82 612.54 512.52 616.99 C511.78 619.53 511.11 622.06 510.51 624.63 C509.67 627.9 508.63 630.9 507.36 634.01 C506.46 636.47 506.46 636.47 505.68 639.95 C504.57 644.49 503.03 648.82 501.39 653.2 C500.92 654.44 500.92 654.44 500.45 655.7 C481.81 705.32 456.08 755.29 420.55 795.04 C417.84 798.08 415.17 801.17 412.51 804.26 C412.02 804.83 411.52 805.4 411.01 805.99 C408.42 809 405.98 812.05 403.66 815.27 C400.61 819.38 397.12 822.72 393.32 826.13 C386.32 832.55 379.58 839.19 372.95 846 C368.75 850.28 364.42 854.05 359.63 857.66 C356.84 859.82 354.37 862.19 351.82 864.63 C346.72 869.44 341.32 873.42 335.48 877.29 C332.62 879.17 332.62 879.17 330.27 881.13 C327.45 883.36 324.56 885.35 321.57 887.34 C321 887.72 320.43 888.1 319.85 888.48 C318.66 889.28 317.46 890.07 316.27 890.87 C314.47 892.06 312.68 893.25 310.89 894.44 C300.11 901.62 289.32 908.58 277.89 914.7 C276.84 915.26 275.8 915.82 274.73 916.4 C266.42 920.85 258.04 925.11 249.57 929.26 C248.2 929.96 246.82 930.65 245.44 931.35 C242.57 932.79 239.7 934.1 236.7 935.26 C235.85 935.59 235 935.92 234.12 936.27 C233.28 936.59 232.44 936.92 231.57 937.26 C230.03 937.88 228.49 938.51 226.95 939.13 C221.82 941.19 216.65 943.11 211.48 945.04 C207.65 946.47 203.85 947.95 200.07 949.51 C195.96 951.18 191.89 952.23 187.57 953.26 C186.77 953.59 185.97 953.92 185.14 954.26 C182.17 955.42 179.24 956.04 176.13 956.7 C172.41 957.51 168.73 958.47 165.04 959.4 C162.42 960.05 159.8 960.67 157.17 961.27 C156.03 961.53 156.03 961.53 154.87 961.8 C153.36 962.14 151.86 962.48 150.36 962.81 C146.31 963.73 146.31 963.73 142.51 965.35 C139.6 966.72 136.82 966.62 133.64 966.76 C128.77 966.92 128.77 966.92 124.15 968.26 C120.58 969.64 117.05 969.65 113.26 969.76 C111.81 969.8 110.35 969.86 108.9 969.92 C108.26 969.93 107.62 969.95 106.96 969.97 C104.36 970.22 104.36 970.22 101.1 971.26 C95.97 972.56 90.97 972.54 85.7 972.52 C84.63 972.52 83.57 972.52 82.48 972.53 C78.99 972.54 75.5 972.53 72.01 972.52 C69.58 972.53 67.14 972.53 64.7 972.53 C59.61 972.53 54.51 972.53 49.41 972.52 C42.89 972.51 36.37 972.51 29.84 972.53 C24.82 972.53 19.79 972.53 14.76 972.53 C12.36 972.53 9.95 972.53 7.55 972.53 C4.18 972.54 0.82 972.53 -2.55 972.52 C-3.53 972.52 -4.52 972.53 -5.54 972.53 C-11.19 972.5 -16 971.83 -21.43 970.26 C-23.73 969.94 -23.73 969.94 -25.75 969.92 C-26.47 969.89 -27.19 969.86 -27.93 969.83 C-29.4 969.78 -30.87 969.74 -32.33 969.69 C-36.51 969.52 -39.6 968.84 -43.43 967.26 C-47 966.9 -50.56 966.76 -54.15 966.6 C-57.31 966.27 -58.69 965.7 -61.43 964.26 C-64.09 963.56 -66.74 962.92 -69.43 962.32 C-70.96 961.97 -72.5 961.62 -74.03 961.27 C-74.78 961.1 -75.53 960.92 -76.31 960.75 C-80.07 959.88 -83.82 958.93 -87.57 957.98 C-89.61 957.47 -91.65 956.97 -93.69 956.48 C-94.76 956.22 -95.82 955.96 -96.93 955.7 C-98.36 955.35 -98.36 955.35 -99.83 955 C-102.24 954.31 -104.2 953.38 -106.43 952.26 C-107.7 952.01 -108.98 951.76 -110.3 951.51 C-115.81 950.37 -120.7 948.04 -125.82 945.76 C-129.15 944.38 -132.4 943.31 -135.86 942.32 C-142.75 940.3 -149.06 937.33 -155.48 934.2 C-158.78 932.6 -162.1 931.06 -165.43 929.51 C-166.6 928.96 -167.78 928.41 -168.99 927.84 C-171.28 926.79 -173.58 925.78 -175.91 924.81 C-179.67 923.15 -183.18 921.25 -186.74 919.2 C-188.14 918.4 -189.55 917.6 -190.95 916.8 C-191.68 916.38 -192.41 915.97 -193.16 915.54 C-195.48 914.23 -197.81 912.94 -200.15 911.66 C-200.94 911.23 -201.72 910.79 -202.53 910.35 C-204.04 909.52 -205.54 908.7 -207.05 907.89 C-212.37 904.95 -217.4 901.67 -222.43 898.26 C-223.9 897.28 -225.38 896.3 -226.86 895.33 C-235.19 889.82 -243.42 884.23 -251.43 878.26 C-252.69 877.34 -253.96 876.41 -255.23 875.49 C-262.67 870.03 -269.73 864.42 -276.39 858.02 C-278.69 855.85 -281.13 853.96 -283.65 852.04 C-291.35 845.94 -298.14 838.84 -305.07 831.88 C-307.48 829.46 -309.9 827.04 -312.33 824.63 C-319.46 817.5 -326.49 810.44 -332.68 802.47 C-334.55 800.11 -336.54 797.94 -338.61 795.76 C-349.04 784.29 -357.77 771.13 -366.19 758.15 C-367.49 756.15 -368.81 754.17 -370.13 752.18 C-376.29 742.88 -381.86 733.35 -387.17 723.54 C-388.45 721.22 -389.75 718.92 -391.06 716.61 C-396.15 707.68 -400.56 698.8 -404.43 689.26 C-405.08 687.73 -405.75 686.21 -406.43 684.7 C-406.89 683.64 -406.89 683.64 -407.37 682.57 C-408.16 680.84 -408.97 679.13 -409.79 677.42 C-413.07 670.54 -415.79 663.64 -418.24 656.43 C-419.67 652.27 -421.26 648.3 -423.18 644.32 C-425.21 640.05 -426.25 636.05 -427.03 631.4 C-427.5 628.85 -428.42 626.65 -429.43 624.26 C-430.67 619.62 -431.73 614.94 -432.8 610.26 C-433.99 605.08 -435.22 599.92 -436.49 594.76 C-436.73 593.75 -436.73 593.75 -436.98 592.73 C-437.67 589.95 -438.4 587.32 -439.52 584.68 C-440.63 581.72 -440.77 579.11 -440.93 575.95 C-441.15 572.29 -441.38 568.89 -442.43 565.38 C-443.9 560.3 -443.92 555 -444.18 549.75 C-444.34 546.42 -444.34 546.42 -444.93 543.83 C-445.41 541.34 -445.55 539.09 -445.55 536.55 C-445.56 535.18 -445.56 535.18 -445.56 533.77 C-445.56 532.78 -445.56 531.79 -445.56 530.76 C-445.56 529.71 -445.56 528.65 -445.56 527.57 C-445.56 524.08 -445.56 520.59 -445.56 517.1 C-445.56 514.68 -445.56 512.25 -445.56 509.83 C-445.56 504.75 -445.56 499.67 -445.56 494.59 C-445.55 488.07 -445.55 481.56 -445.56 475.05 C-445.56 470.04 -445.56 465.03 -445.56 460.03 C-445.56 457.62 -445.56 455.22 -445.56 452.82 C-445.56 449.46 -445.56 446.11 -445.56 442.75 C-445.56 441.26 -445.56 441.26 -445.56 439.74 C-445.56 438.83 -445.56 437.91 -445.55 436.96 C-445.55 436.17 -445.55 435.38 -445.55 434.56 C-445.41 432.05 -444.94 429.72 -444.43 427.26 C-444.21 423.89 -444.04 420.52 -443.91 417.14 C-443.7 413.06 -442.96 410.01 -441.43 406.26 C-441.24 404.08 -441.12 401.89 -441.05 399.7 C-440.7 393.66 -439.48 388.7 -437.4 383.05 C-436.5 380.46 -435.91 378.02 -435.43 375.32 C-434.51 370.26 -432.99 365.47 -431.44 360.58 C-430.16 356.4 -429.13 352.17 -428.14 347.92 C-427.43 345.26 -427.43 345.26 -426.46 342.92 C-425.38 340.15 -424.73 337.37 -424.03 334.49 C-422.89 330.3 -421.26 326.29 -419.68 322.26 C-418.95 320.4 -418.23 318.53 -417.51 316.67 C-417.16 315.75 -416.8 314.84 -416.44 313.9 C-415.53 311.52 -414.64 309.14 -413.78 306.75 C-411.21 299.68 -408.39 292.9 -404.9 286.21 C-403.38 283.17 -402.12 280.1 -400.86 276.95 C-396.76 267.19 -391.29 258.16 -386 249 C-384.19 245.84 -382.42 242.65 -380.66 239.46 C-377.47 233.68 -374.12 228.15 -370.23 222.81 C-368.04 219.72 -366.02 216.52 -363.99 213.32 C-360.04 207.12 -355.83 201.15 -351.43 195.26 C-350.68 194.25 -349.94 193.23 -349.17 192.19 C-344.09 185.32 -338.77 178.88 -332.98 172.61 C-332.12 171.67 -331.25 170.73 -330.36 169.76 C-329.57 168.9 -328.77 168.05 -327.95 167.17 C-326.07 165 -324.4 162.88 -322.73 160.56 C-319.5 156.23 -315.9 152.42 -312.08 148.61 C-311.38 147.91 -310.69 147.22 -309.98 146.5 C-308.52 145.03 -307.05 143.57 -305.59 142.11 C-303.38 139.91 -301.19 137.69 -299.01 135.48 C-291.73 128.17 -284.44 121.33 -276.08 115.27 C-273.56 113.36 -271.41 111.36 -269.24 109.07 C-265.85 105.53 -262.19 102.81 -258.11 100.09 C-255.18 98.09 -252.36 95.97 -249.53 93.83 C-238.22 85.36 -226.51 77.57 -214.43 70.26 C-213.66 69.79 -212.89 69.32 -212.1 68.84 C-197.32 59.89 -182.02 51.71 -166.43 44.26 C-165.43 43.78 -164.44 43.31 -163.42 42.82 C-160.03 41.2 -156.64 39.6 -153.24 38.01 C-152.17 37.5 -151.1 36.99 -150 36.47 C-143.58 33.49 -137.21 31.16 -130.42 29.17 C-126.37 27.94 -122.55 26.33 -118.68 24.63 C-112.95 22.19 -107.57 20.4 -101.43 19.26 C-100.09 18.6 -98.76 17.93 -97.43 17.26 C-95.52 16.73 -95.52 16.73 -93.49 16.32 C-92.69 16.15 -91.9 15.99 -91.08 15.81 C-90.21 15.63 -89.33 15.45 -88.43 15.26 C-77 12.78 -65.53 9.96 -54.43 6.26 C-50.88 5.99 -47.33 5.81 -43.77 5.64 C-40.56 5.48 -40.56 5.48 -38.5 4.25 C-35.24 2.69 -31.79 2.86 -28.24 2.76 C-23.79 2.62 -19.62 2.38 -15.3 1.25 C-10.17 0.08 -5.25 -0.02 0 0 Z " fill="#009205" transform="translate(598.42578125,112.7412109375)"/>
<path d="M0 0 C11.4 9.16 19.26 22.5 21 37 C22.19 59.08 14.77 73.88 1.5 91.03 C-0.74 93.97 -2.87 96.98 -5 100 C-11.92 109.76 -18.97 119.43 -26.62 128.62 C-30.37 133.13 -33.76 137.81 -37.13 142.6 C-40.14 146.86 -43.3 150.98 -46.56 155.06 C-50.15 159.55 -53.53 164.12 -56.75 168.88 C-59.71 173.23 -62.8 177.19 -66.35 181.08 C-68.09 183.11 -69.57 185.21 -71.06 187.44 C-74.38 192.31 -78.09 196.75 -81.88 201.25 C-86.6 206.89 -90.83 212.56 -94.67 218.83 C-97.88 223.99 -101.58 228.63 -105.42 233.33 C-108.91 237.61 -112.25 241.97 -115.5 246.44 C-115.95 247.05 -116.39 247.67 -116.85 248.3 C-117.77 249.55 -118.68 250.81 -119.59 252.06 C-125.59 260.3 -131.64 268.48 -138.25 276.25 C-141.35 279.91 -144.14 283.59 -146.75 287.62 C-150.66 293.67 -155.05 299.28 -159.51 304.93 C-163.73 310.31 -167.78 315.8 -171.75 321.38 C-176.13 327.53 -180.71 333.34 -185.61 339.09 C-188.65 342.79 -191.37 346.67 -194.12 350.59 C-197.19 354.95 -200.44 359.12 -203.81 363.25 C-208.33 368.8 -212.59 374.49 -216.75 380.31 C-220.69 385.83 -224.68 391.27 -228.98 396.51 C-230.56 398.45 -232.09 400.41 -233.61 402.39 C-247.04 419.89 -260.64 432.08 -283 436 C-298.19 437.55 -312.72 432.37 -324.52 423 C-326.28 421.53 -328.03 420.05 -329.79 418.57 C-333.67 415.38 -337.84 412.62 -342 409.81 C-348.7 405.3 -355.27 400.65 -361.75 395.81 C-367.87 391.25 -374.06 386.87 -380.44 382.69 C-385.94 379.07 -391.3 375.28 -396.66 371.46 C-401.22 368.23 -405.83 365.11 -410.5 362.06 C-416.76 357.96 -422.68 353.48 -428.59 348.89 C-433.97 344.73 -439.49 340.83 -445.13 337.02 C-449.6 333.99 -453.98 330.85 -458.31 327.62 C-463.95 323.44 -469.69 319.44 -475.5 315.5 C-483.12 310.33 -490.58 305 -497.97 299.5 C-500.26 297.81 -502.57 296.13 -504.87 294.45 C-505.71 293.84 -506.55 293.22 -507.42 292.59 C-509.05 291.4 -510.67 290.22 -512.3 289.03 C-528.37 277.26 -537.75 265.38 -541.55 245.37 C-543.47 230.89 -537.49 216.47 -529 205 C-528.5 204.28 -528 203.57 -527.49 202.83 C-519.52 192.47 -505.21 186.67 -492.7 184.4 C-470.03 181.76 -451.37 194.44 -434.11 207.42 C-431.03 209.73 -427.89 211.96 -424.75 214.19 C-423.61 215 -422.48 215.81 -421.34 216.62 C-420.23 217.41 -419.11 218.21 -418 219 C-408.08 226.07 -398.19 233.19 -388.31 240.33 C-385.29 242.51 -382.27 244.7 -379.24 246.88 C-377.75 247.96 -376.26 249.04 -374.76 250.12 C-370.94 252.88 -367.12 255.64 -363.29 258.39 C-353.18 265.67 -343.12 272.99 -333.31 280.67 C-326.33 286.12 -319.08 291.06 -311.67 295.89 C-310.16 296.89 -308.69 297.94 -307.23 299 C-306.45 299.55 -305.67 300.11 -304.88 300.69 C-304.23 301.17 -303.59 301.64 -302.93 302.14 C-300.24 303.34 -298.75 302.92 -296 302 C-291.48 297.48 -288.04 292.23 -284.46 286.97 C-280.23 280.81 -275.62 275.03 -270.73 269.38 C-264.84 262.52 -259.73 255.36 -254.69 247.87 C-251.28 242.82 -247.75 237.99 -243.88 233.29 C-239.59 228.05 -235.62 222.54 -231.59 217.1 C-226.56 210.31 -221.55 203.56 -216.06 197.12 C-211.33 191.54 -207.07 185.67 -202.83 179.71 C-199.55 175.13 -196.22 170.62 -192.75 166.19 C-189.53 162.04 -186.46 157.84 -183.5 153.5 C-178.36 145.98 -172.81 138.82 -167.16 131.68 C-163.66 127.23 -160.33 122.68 -157.06 118.06 C-153.53 113.06 -149.87 108.21 -145.98 103.48 C-144.33 101.41 -142.74 99.32 -141.16 97.2 C-138.11 93.1 -134.88 89.18 -131.62 85.25 C-127.06 79.69 -122.91 74.04 -119.02 67.99 C-115.43 62.67 -111.36 57.72 -107.36 52.71 C-100.38 43.94 -93.7 34.94 -87.08 25.89 C-75.22 9.69 -63.46 -4.93 -42.93 -9.6 C-27.38 -11.73 -13.14 -8.95 0 0 Z " fill="#F4F7F6" transform="translate(893,409)"/>
</svg>
